<?xml version="1.0" standalone="no"?>
<!DOCTYPE svg PUBLIC "-//W3C//DTD SVG 20010904//EN"
 "http://www.w3.org/TR/2001/REC-SVG-20010904/DTD/svg10.dtd">
<svg version="1.0" xmlns="http://www.w3.org/2000/svg"
 width="522.000000pt" height="522.000000pt" viewBox="0 0 522.000000 522.000000"
 preserveAspectRatio="xMidYMid meet">
<metadata>
Created by potrace 1.11, written by Peter Selinger 2001-2013
</metadata>
<g transform="translate(0.000000,522.000000) scale(0.100000,-0.100000)"
fill="#000000" stroke="none">
<path d="M2237 4685 c-48 -7 -102 -20 -120 -28 -18 -8 -72 -29 -121 -48 -73
-28 -92 -39 -100 -61 -11 -30 -35 -43 -104 -59 -26 -5 -58 -21 -72 -34 -14
-12 -39 -26 -57 -30 -18 -3 -42 -14 -55 -24 -13 -10 -42 -28 -65 -41 -24 -13
-43 -27 -43 -32 0 -5 -20 -18 -45 -30 -25 -12 -45 -25 -45 -30 0 -4 -18 -23
-39 -43 -22 -20 -44 -49 -51 -63 -6 -15 -41 -52 -76 -82 -35 -30 -73 -68 -84
-85 -11 -16 -38 -52 -60 -80 -22 -27 -51 -66 -64 -85 -65 -98 -106 -168 -106
-181 0 -8 -13 -23 -30 -34 -16 -11 -43 -39 -59 -62 -32 -45 -91 -207 -91 -249
0 -13 -4 -32 -10 -42 -5 -9 -16 -44 -24 -77 -8 -33 -21 -78 -30 -100 -8 -22
-15 -54 -16 -71 0 -17 -7 -77 -16 -135 -18 -112 -20 -310 -4 -394 5 -27 17
-93 26 -145 10 -52 32 -140 49 -195 18 -55 35 -113 39 -129 4 -16 18 -43 32
-59 13 -16 24 -41 24 -57 0 -15 7 -34 17 -41 9 -8 29 -43 45 -78 15 -35 39
-72 53 -83 14 -11 25 -29 25 -41 0 -11 8 -30 19 -41 10 -12 23 -34 28 -51 6
-19 21 -36 41 -45 22 -10 32 -22 32 -38 0 -15 12 -29 36 -44 25 -14 34 -26 31
-38 -3 -11 6 -26 23 -38 15 -11 30 -33 33 -49 3 -17 16 -35 32 -43 22 -12 26
-19 21 -41 -4 -23 0 -29 24 -39 15 -6 44 -30 64 -51 35 -39 37 -40 88 -36 29
3 61 8 70 12 18 7 30 48 24 80 -3 11 -5 25 -5 31 -2 27 -191 246 -322 374 -20
19 -42 46 -49 59 -7 13 -31 48 -54 77 -100 128 -120 160 -132 203 -6 25 -21
63 -33 84 -11 21 -21 55 -21 76 0 22 -11 61 -24 88 -13 26 -26 73 -29 103 -3
30 -14 100 -23 155 -21 125 -25 268 -8 365 38 224 46 292 39 332 -11 65 -9 77
19 158 29 79 46 100 83 100 35 0 60 55 63 138 0 6 6 12 14 12 21 0 76 49 76
67 0 19 45 78 129 169 36 39 86 95 111 125 56 67 146 159 225 228 33 29 72 63
86 77 27 25 106 54 151 54 15 0 31 6 35 13 4 6 27 25 51 41 24 16 55 43 70 61
23 25 44 35 117 52 85 21 207 39 231 35 6 -1 42 6 80 16 128 32 528 1 624 -49
22 -12 43 -25 46 -30 3 -5 16 -9 28 -9 13 0 29 -7 36 -15 14 -17 131 -75 151
-75 7 0 9 -3 6 -7 -11 -11 14 -33 38 -33 12 0 39 -11 59 -25 20 -14 45 -25 55
-25 9 0 27 -11 39 -25 12 -14 27 -25 32 -25 6 0 23 -8 37 -17 14 -10 38 -19
52 -21 61 -8 75 -59 31 -114 -52 -64 -28 -126 39 -99 27 12 29 16 19 34 -8 16
-7 23 7 33 24 18 62 -2 70 -36 4 -18 16 -30 39 -38 38 -14 53 -37 30 -46 -9
-3 -13 -10 -9 -16 4 -6 13 -5 25 2 16 10 25 9 48 -4 15 -9 46 -19 69 -21 23
-3 46 -8 51 -11 5 -3 8 9 7 26 -1 21 -11 39 -31 55 -16 12 -32 23 -36 23 -4 0
-10 9 -13 20 -4 11 -16 31 -28 44 -68 74 -90 100 -112 132 -39 57 -114 118
-159 130 -17 4 -36 20 -48 40 -11 18 -28 36 -38 39 -10 3 -38 21 -62 40 -23
19 -50 35 -59 35 -10 0 -43 14 -75 31 -33 18 -75 40 -95 50 -20 10 -39 25 -42
33 -6 16 -85 58 -162 86 -115 43 -222 62 -425 77 -307 22 -318 22 -413 8z
m-797 -3527 c0 -12 -38 -10 -45 2 -4 6 5 9 19 8 15 -1 26 -6 26 -10z"/>
<path d="M3882 3715 c-1 -21 23 -53 37 -47 3 1 7 -15 9 -35 3 -40 32 -72 65
-73 12 0 17 -8 17 -27 0 -15 11 -38 24 -52 27 -29 51 -87 70 -174 10 -44 22
-67 49 -94 21 -19 37 -39 37 -44 0 -5 6 -9 14 -9 23 0 46 -41 46 -83 0 -20 10
-66 21 -100 18 -53 22 -91 25 -267 3 -113 5 -215 5 -227 1 -12 -8 -34 -18 -50
-28 -40 -34 -72 -19 -102 35 -68 36 -172 2 -240 -14 -28 -26 -56 -26 -62 0
-12 -64 -96 -87 -114 -15 -12 -47 -65 -69 -115 -8 -19 -19 -44 -24 -55 -5 -11
-16 -36 -25 -55 -28 -62 -47 -94 -79 -131 -67 -79 -77 -93 -92 -120 -8 -16
-28 -36 -44 -44 -34 -17 -111 -97 -122 -126 -4 -10 -20 -26 -35 -36 -35 -22
-133 -124 -133 -138 0 -16 -108 -125 -124 -125 -7 0 -19 -6 -25 -14 -11 -13
-57 -28 -129 -41 -22 -5 -34 -13 -38 -30 -6 -24 -29 -35 -75 -35 -15 0 -32 -7
-39 -15 -7 -8 -28 -15 -47 -15 -18 0 -60 -13 -91 -29 -54 -28 -66 -30 -227
-36 -93 -4 -215 -10 -270 -13 -84 -6 -111 -4 -170 13 -96 28 -278 112 -328
153 -16 12 -39 22 -52 22 -13 0 -37 11 -53 25 -16 13 -51 32 -78 41 -27 9 -62
30 -79 48 -16 17 -42 39 -56 48 -24 15 -26 15 -37 -3 -9 -14 -9 -20 1 -26 7
-4 24 -30 37 -56 15 -29 35 -53 50 -59 14 -5 35 -19 48 -31 28 -26 72 -100 72
-121 0 -9 6 -16 13 -16 6 0 32 -14 57 -30 25 -16 51 -30 57 -30 7 0 39 -18 70
-40 32 -22 67 -40 79 -40 11 0 24 -4 30 -9 8 -8 148 -33 259 -46 28 -3 64 -9
80 -13 27 -6 184 -8 275 -2 19 1 71 11 115 22 107 26 159 37 225 46 30 4 66
15 80 24 14 9 40 19 57 23 18 4 36 12 40 19 12 19 68 46 97 46 16 0 36 12 53
30 14 17 35 30 45 30 10 0 28 10 40 22 12 12 31 22 43 23 28 1 85 54 78 72 -3
7 -18 13 -34 13 -16 0 -29 1 -29 3 0 15 43 86 62 103 25 22 63 40 53 25 -3 -5
0 -13 6 -16 6 -4 8 -18 5 -31 -6 -23 -4 -24 21 -18 16 4 42 17 58 31 17 13 51
37 78 54 26 17 47 34 47 37 0 4 23 32 51 62 59 63 75 96 58 116 -10 12 -15 12
-34 0 -13 -8 -25 -12 -29 -9 -13 13 -5 45 13 50 10 2 23 14 29 26 11 24 52 72
147 176 33 36 66 73 72 81 7 8 40 43 73 78 33 35 62 74 65 88 3 13 7 34 10 47
2 13 16 40 30 61 26 38 66 130 78 177 5 18 1 32 -12 45 -17 18 -17 21 0 61 17
40 32 171 28 243 -2 19 -2 53 -1 75 15 368 11 456 -23 510 -7 11 -20 52 -29
90 -12 46 -27 80 -46 100 -15 17 -37 48 -49 70 -26 50 -71 99 -108 119 -16 8
-42 34 -58 58 -16 24 -40 60 -53 81 -14 20 -28 37 -33 37 -10 0 -73 68 -75 81
-1 5 -2 14 -3 19 0 6 -4 9 -8 8 -5 -1 -23 2 -40 6 -23 5 -33 13 -33 26 0 28
-15 32 -18 5z"/>
<path d="M1769 3613 c-66 -31 -118 -118 -100 -166 5 -12 5 -32 0 -45 -6 -15
-5 -31 2 -44 7 -12 12 -83 13 -168 1 -113 4 -151 16 -165 13 -15 28 -17 142
-11 142 6 181 18 221 65 22 26 27 43 27 84 0 29 9 81 20 116 17 53 19 82 15
169 -5 101 -6 107 -32 128 -16 12 -39 25 -53 28 -43 10 -254 16 -271 9z"/>
<path d="M3396 3429 c-11 -7 -40 -20 -65 -30 -25 -9 -71 -27 -101 -39 -58 -22
-100 -59 -100 -89 0 -10 -11 -28 -24 -40 -15 -14 -22 -30 -19 -42 3 -10 0 -26
-7 -34 -14 -17 -19 -113 -7 -132 5 -7 19 -13 32 -13 31 0 70 -58 80 -117 11
-67 29 -81 118 -94 43 -5 92 -7 108 -4 36 8 76 66 85 125 4 23 13 44 20 47 32
12 68 164 67 285 -1 66 -32 140 -69 164 -31 21 -94 27 -118 13z"/>
<path d="M2175 2740 c8 -13 85 -13 105 0 11 7 -4 10 -48 10 -40 0 -61 -4 -57
-10z"/>
<path d="M1838 2585 c-2 -3 -65 -5 -139 -6 -173 -2 -212 -15 -251 -85 -33 -58
-30 -109 8 -165 13 -19 24 -41 24 -48 0 -7 6 -25 14 -39 8 -15 22 -53 31 -85
12 -40 34 -79 74 -127 31 -38 74 -94 97 -123 23 -29 59 -61 80 -72 21 -11 58
-37 81 -57 28 -25 56 -40 84 -44 35 -6 43 -12 55 -40 14 -33 70 -73 123 -89
14 -4 46 -23 73 -41 26 -19 55 -34 64 -34 8 0 24 -5 35 -10 38 -21 175 -52
239 -55 36 -2 100 -7 143 -10 76 -7 79 -6 107 20 16 15 32 41 35 57 5 23 11
28 23 22 29 -12 65 -5 185 36 147 50 182 68 248 128 30 27 61 53 70 58 9 5 39
38 68 73 28 35 67 75 86 88 33 22 85 106 85 136 0 8 13 31 30 52 34 43 37 50
48 133 10 68 8 70 -46 51 -24 -8 -54 -7 -129 6 -54 9 -123 21 -153 25 -30 5
-71 13 -90 18 -41 12 -227 23 -425 27 -104 2 -149 6 -175 18 -19 9 -109 32
-200 51 -168 36 -274 44 -406 30 l-60 -6 -43 56 c-29 40 -48 56 -65 56 -12 0
-25 -2 -28 -5z m442 -693 c0 -5 -17 -13 -37 -18 -21 -5 -37 -15 -36 -22 2 -6
-8 -14 -21 -18 -18 -4 -26 -15 -31 -41 l-7 -36 -21 25 c-21 24 -24 24 -45 10
-20 -13 -25 -13 -32 -2 -13 21 6 47 44 60 19 6 37 17 40 25 7 20 30 19 47 -1
11 -14 14 -14 24 -1 15 20 75 35 75 19z m328 -171 c23 -12 35 -48 18 -54 -6
-2 -24 0 -39 6 -15 5 -42 6 -59 3 -17 -3 -68 1 -112 10 -45 9 -92 18 -105 20
-35 7 -14 22 39 27 72 8 236 0 258 -12z m107 -41 c4 -6 23 -7 46 -4 31 5 39 3
39 -9 0 -8 7 -17 15 -21 8 -3 15 -10 15 -15 0 -17 -55 -21 -107 -7 -28 8 -54
11 -57 8 -4 -3 -1 9 5 26 11 31 32 42 44 22z"/>
<path d="M3620 950 c0 -5 5 -10 10 -10 6 0 10 5 10 10 0 6 -4 10 -10 10 -5 0
-10 -4 -10 -10z"/>
</g>
</svg>
