<svg xmlns="http://www.w3.org/2000/svg" height="20" viewBox="0 -960 960 960" width="20"><path d="M480.108-142.154q-69.862 0-131.306-26.386-61.444-26.386-107.754-72.69-46.31-46.305-72.602-107.686-26.292-61.381-26.292-131.17 0-69.928 26.281-131.024 26.282-61.095 72.579-107.344 46.297-46.249 107.81-72.763 61.512-26.514 131.451-26.514t131.105 26.498q61.165 26.498 107.507 72.719 46.343 46.222 72.651 107.208Q817.846-550.32 817.846-480v282.922q0 22.894-16.337 38.909t-39.628 16.015H480.108ZM480-171.077q128.257 0 218.282-90.309 90.026-90.309 90.026-218.364 0-128.216-90.131-218.387-90.13-90.171-218.288-90.171-128.158 0-218.485 90.171Q171.077-607.966 171.077-480q0 30.922 5.538 61.865 5.539 30.943 18.27 60.058L334.808-498.5l120.154 116.884 190.499-190.999h-98.807v-28.924h148.423v148.424h-28.923v-99.039l-214 213.5-119.385-117L209.615-331.5q41.077 74.808 113.887 117.615Q396.311-171.077 480-171.077Zm278.866-3.884q10.057 0 17.749-7.482 7.693-7.482 7.693-17.346 0-9.865-7.482-17.749-7.482-7.885-17.539-7.885-10.056 0-17.748 7.674-7.693 7.674-7.693 17.539 0 9.864 7.482 17.556 7.482 7.693 17.538 7.693Zm-282.02-304.924Z"/></svg>