<?xml version="1.0" encoding="UTF-8"?>
<svg viewBox="0 0 149.33 149.33" xmlns="http://www.w3.org/2000/svg">
<defs>
<clipPath id="a">
<path d="M0 112h112V0H0z"/>
</clipPath>
</defs>
<g transform="matrix(1.3333 0 0 -1.3333 0 149.33)" clip-path="url(#a)">
<path d="M56 100c-24.262 0-44-19.738-44-44s19.738-44 44-44 44 19.738 44 44-19.738 44-44 44M56 0C25.122 0 0 25.122 0 56s25.122 56 56 56 56-25.122 56-56S86.878 0 56 0" fill="#ffda0c"/>
<path d="m66.5 53c-4.136 0-7.5-3.364-7.5-7.5s3.364-7.5 7.5-7.5 7.5 3.364 7.5 7.5-3.364 7.5-7.5 7.5m0-25c-9.649 0-17.5 7.851-17.5 17.5s7.851 17.5 17.5 17.5 17.5-7.851 17.5-17.5-7.851-17.5-17.5-17.5" fill="#f8f8f8"/>
<path d="m26.093 49.643c-3.313 0-6 2.687-6 6 0 19.851 16.149 36 36 36 3.313 0 6-2.687 6-6s-2.687-6-6-6c-13.233 0-24-10.767-24-24 0-3.313-2.687-6-6-6" fill="#ffda0c"/>
</g>
</svg>
